<mxfile host="app.diagrams.net" modified="2024-06-02T11:41:38.341Z" agent="Mozilla/5.0 (Windows NT 10.0; Win64; x64) AppleWebKit/537.36 (KHTML, like Gecko) Chrome/123.0.0.0 Safari/537.36 OPR/109.0.0.0" etag="9ds9T-givrUQOU8oGnDa" version="24.4.13" type="github">
  <diagram name="Страница — 1" id="_JlX8t3cIF-R1KQjP4Sb">
    <mxGraphModel dx="551" dy="724" grid="1" gridSize="10" guides="1" tooltips="1" connect="1" arrows="1" fold="1" page="1" pageScale="1" pageWidth="827" pageHeight="1169" math="0" shadow="0">
      <root>
        <mxCell id="0" />
        <mxCell id="1" parent="0" />
        <mxCell id="Tdp0xj_Su_nTBGMrEOoG-1" value="Database" style="swimlane;fontStyle=1;align=center;verticalAlign=top;childLayout=stackLayout;horizontal=1;startSize=26;horizontalStack=0;resizeParent=1;resizeParentMax=0;resizeLast=0;collapsible=1;marginBottom=0;whiteSpace=wrap;html=1;" vertex="1" parent="1">
          <mxGeometry x="40" y="240" width="320" height="360" as="geometry" />
        </mxCell>
        <mxCell id="Tdp0xj_Su_nTBGMrEOoG-2" value="&lt;div&gt;&lt;span style=&quot;white-space: normal;&quot;&gt;-ui:&lt;/span&gt;&lt;span style=&quot;background-color: initial;&quot;&gt;UserInterface*&lt;/span&gt;&lt;span style=&quot;background-color: initial;&quot;&gt;&amp;nbsp;&lt;/span&gt;&lt;/div&gt;&lt;div&gt;&lt;span style=&quot;white-space: normal;&quot;&gt;-tvShows:&lt;/span&gt;&lt;span style=&quot;background-color: initial;&quot;&gt;vector&amp;lt;TVShow&amp;gt;&lt;/span&gt;&lt;span style=&quot;background-color: initial;&quot;&gt;&amp;nbsp;&lt;/span&gt;&lt;/div&gt;&lt;div&gt;&lt;span style=&quot;white-space: normal;&quot;&gt;-users:&lt;/span&gt;&lt;span style=&quot;background-color: initial;&quot;&gt;vector&amp;lt;User&amp;gt;&lt;/span&gt;&lt;span style=&quot;background-color: initial;&quot;&gt;&amp;nbsp;&lt;/span&gt;&lt;/div&gt;&lt;div&gt;&lt;span style=&quot;background-color: initial;&quot;&gt;-currentUser:&lt;/span&gt;&lt;span style=&quot;background-color: initial;&quot;&gt;User*&lt;/span&gt;&lt;span style=&quot;background-color: initial;&quot;&gt;&amp;nbsp;&lt;/span&gt;&lt;br&gt;&lt;/div&gt;" style="text;strokeColor=none;fillColor=none;align=left;verticalAlign=top;spacingLeft=4;spacingRight=4;overflow=hidden;rotatable=0;points=[[0,0.5],[1,0.5]];portConstraint=eastwest;whiteSpace=wrap;html=1;" vertex="1" parent="Tdp0xj_Su_nTBGMrEOoG-1">
          <mxGeometry y="26" width="320" height="64" as="geometry" />
        </mxCell>
        <mxCell id="Tdp0xj_Su_nTBGMrEOoG-3" value="" style="line;strokeWidth=1;fillColor=none;align=left;verticalAlign=middle;spacingTop=-1;spacingLeft=3;spacingRight=3;rotatable=0;labelPosition=right;points=[];portConstraint=eastwest;strokeColor=inherit;" vertex="1" parent="Tdp0xj_Su_nTBGMrEOoG-1">
          <mxGeometry y="90" width="320" height="8" as="geometry" />
        </mxCell>
        <mxCell id="Tdp0xj_Su_nTBGMrEOoG-4" value="-showUsers():void&lt;div&gt;&lt;div&gt;+sortByName():void&lt;/div&gt;&lt;div&gt;+sortByRate()&lt;span style=&quot;background-color: initial;&quot;&gt;:void&lt;/span&gt;&lt;/div&gt;&lt;div&gt;+encodeOrDecodePassword(password:&lt;span style=&quot;background-color: initial;&quot;&gt;string&amp;amp;&lt;/span&gt;&lt;span style=&quot;background-color: initial;&quot;&gt;)&lt;/span&gt;&lt;span style=&quot;background-color: initial;&quot;&gt;:void&lt;/span&gt;&lt;/div&gt;&lt;div&gt;+showTVShows(showID:&lt;span style=&quot;background-color: initial;&quot;&gt;bool&lt;/span&gt;&lt;span style=&quot;background-color: initial;&quot;&gt;)&lt;/span&gt;&lt;span style=&quot;background-color: initial;&quot;&gt;:void&lt;/span&gt;&lt;/div&gt;&lt;div&gt;+addTVShow()&lt;span style=&quot;background-color: initial;&quot;&gt;:void&lt;/span&gt;&lt;/div&gt;&lt;div&gt;+removeTVShow()&lt;span style=&quot;background-color: initial;&quot;&gt;:void&lt;/span&gt;&lt;/div&gt;&lt;div&gt;+editTVShow(int id)&lt;span style=&quot;background-color: initial;&quot;&gt;:void&lt;/span&gt;&lt;/div&gt;&lt;div&gt;+rebalanceAllMaxes()&lt;span style=&quot;background-color: initial;&quot;&gt;:void&lt;/span&gt;&lt;/div&gt;&lt;div&gt;+rebalanceAllRate()&lt;span style=&quot;background-color: initial;&quot;&gt;:void&lt;/span&gt;&lt;/div&gt;&lt;div&gt;+addUser()&lt;span style=&quot;background-color: initial;&quot;&gt;:void&lt;/span&gt;&lt;/div&gt;&lt;div&gt;+removeUser()&lt;span style=&quot;background-color: initial;&quot;&gt;:void&lt;/span&gt;&lt;/div&gt;&lt;div&gt;+writeTVShowsToFile()&lt;span style=&quot;background-color: initial;&quot;&gt;:void&lt;/span&gt;&lt;/div&gt;&lt;div&gt;+readTVShowsFromFile()&lt;span style=&quot;background-color: initial;&quot;&gt;:void&lt;/span&gt;&lt;/div&gt;&lt;div&gt;+writeUsersToFile()&lt;span style=&quot;background-color: initial;&quot;&gt;:void&lt;/span&gt;&lt;/div&gt;&lt;div&gt;+readUsersFromFile()&lt;span style=&quot;background-color: initial;&quot;&gt;:void&lt;/span&gt;&lt;/div&gt;&lt;div&gt;+login()&lt;span style=&quot;background-color: initial;&quot;&gt;:void&lt;/span&gt;&lt;/div&gt;&lt;/div&gt;" style="text;strokeColor=none;fillColor=none;align=left;verticalAlign=top;spacingLeft=4;spacingRight=4;overflow=hidden;rotatable=0;points=[[0,0.5],[1,0.5]];portConstraint=eastwest;whiteSpace=wrap;html=1;" vertex="1" parent="Tdp0xj_Su_nTBGMrEOoG-1">
          <mxGeometry y="98" width="320" height="262" as="geometry" />
        </mxCell>
        <mxCell id="Tdp0xj_Su_nTBGMrEOoG-5" value="UserInterface" style="swimlane;fontStyle=1;align=center;verticalAlign=top;childLayout=stackLayout;horizontal=1;startSize=26;horizontalStack=0;resizeParent=1;resizeParentMax=0;resizeLast=0;collapsible=1;marginBottom=0;whiteSpace=wrap;html=1;" vertex="1" parent="1">
          <mxGeometry x="440" y="240" width="320" height="230" as="geometry" />
        </mxCell>
        <mxCell id="Tdp0xj_Su_nTBGMrEOoG-6" value="-db:Database*" style="text;strokeColor=none;fillColor=none;align=left;verticalAlign=top;spacingLeft=4;spacingRight=4;overflow=hidden;rotatable=0;points=[[0,0.5],[1,0.5]];portConstraint=eastwest;whiteSpace=wrap;html=1;" vertex="1" parent="Tdp0xj_Su_nTBGMrEOoG-5">
          <mxGeometry y="26" width="320" height="26" as="geometry" />
        </mxCell>
        <mxCell id="Tdp0xj_Su_nTBGMrEOoG-7" value="" style="line;strokeWidth=1;fillColor=none;align=left;verticalAlign=middle;spacingTop=-1;spacingLeft=3;spacingRight=3;rotatable=0;labelPosition=right;points=[];portConstraint=eastwest;strokeColor=inherit;" vertex="1" parent="Tdp0xj_Su_nTBGMrEOoG-5">
          <mxGeometry y="52" width="320" height="8" as="geometry" />
        </mxCell>
        <mxCell id="Tdp0xj_Su_nTBGMrEOoG-8" value="&lt;div&gt;+userMenu():&lt;span style=&quot;background-color: initial;&quot;&gt;void&lt;/span&gt;&lt;span style=&quot;background-color: initial;&quot;&gt;&amp;nbsp;&lt;/span&gt;&lt;/div&gt;&lt;div&gt;+adminMenu():&lt;span style=&quot;background-color: initial;&quot;&gt;void&lt;/span&gt;&lt;span style=&quot;background-color: initial;&quot;&gt;&amp;nbsp;&lt;/span&gt;&lt;/div&gt;&lt;div&gt;+pressAnyButton():&lt;span style=&quot;background-color: initial;&quot;&gt;void&lt;/span&gt;&lt;span style=&quot;background-color: initial;&quot;&gt;&amp;nbsp;&lt;/span&gt;&lt;/div&gt;&lt;div&gt;+isInteger(input:&lt;span style=&quot;background-color: initial;&quot;&gt;string&lt;/span&gt;&lt;span style=&quot;background-color: initial;&quot;&gt;):bool&lt;/span&gt;&lt;/div&gt;&lt;div&gt;+isDouble(input:&lt;span style=&quot;background-color: initial;&quot;&gt;string&lt;/span&gt;&lt;span style=&quot;background-color: initial;&quot;&gt;):bool&lt;/span&gt;&lt;/div&gt;&lt;div&gt;+startUI():&lt;span style=&quot;background-color: initial;&quot;&gt;void&lt;/span&gt;&lt;span style=&quot;background-color: initial;&quot;&gt;&amp;nbsp;&lt;/span&gt;&lt;/div&gt;&lt;div&gt;+inputInt(data:&lt;span style=&quot;background-color: initial;&quot;&gt;int&amp;amp;&lt;/span&gt;&lt;span style=&quot;background-color: initial;&quot;&gt;, text:&lt;/span&gt;&lt;span style=&quot;background-color: initial;&quot;&gt;string&lt;/span&gt;&lt;span style=&quot;background-color: initial;&quot;&gt;):&lt;/span&gt;&lt;span style=&quot;background-color: initial;&quot;&gt;void&lt;/span&gt;&lt;span style=&quot;background-color: initial;&quot;&gt;&amp;nbsp;&lt;/span&gt;&lt;/div&gt;&lt;div&gt;+showTVShows():&lt;span style=&quot;background-color: initial;&quot;&gt;void&lt;/span&gt;&lt;span style=&quot;background-color: initial;&quot;&gt;&amp;nbsp;&lt;/span&gt;&lt;/div&gt;&lt;div&gt;+editTVShow():&lt;span style=&quot;background-color: initial;&quot;&gt;void&lt;/span&gt;&lt;span style=&quot;background-color: initial;&quot;&gt;&amp;nbsp;&lt;/span&gt;&lt;/div&gt;&lt;div&gt;+inputRange(min:&lt;span style=&quot;background-color: initial;&quot;&gt;int&lt;/span&gt;&lt;span style=&quot;background-color: initial;&quot;&gt;&amp;nbsp;&lt;/span&gt;&lt;span style=&quot;background-color: initial;&quot;&gt;,max:&lt;/span&gt;&lt;span style=&quot;background-color: initial;&quot;&gt;int&lt;/span&gt;&lt;span style=&quot;background-color: initial;&quot;&gt;&amp;nbsp;&lt;/span&gt;&lt;span style=&quot;background-color: initial;&quot;&gt;, text:&lt;/span&gt;&lt;span style=&quot;background-color: initial;&quot;&gt;string&lt;/span&gt;&lt;span style=&quot;background-color: initial;&quot;&gt;):int&lt;/span&gt;&lt;/div&gt;&lt;div&gt;+inputRange(min:&lt;span style=&quot;background-color: initial;&quot;&gt;double&lt;/span&gt;&lt;span style=&quot;background-color: initial;&quot;&gt;&amp;nbsp;&lt;/span&gt;&lt;span style=&quot;background-color: initial;&quot;&gt;, max:&lt;/span&gt;&lt;span style=&quot;background-color: initial;&quot;&gt;double&lt;/span&gt;&lt;span style=&quot;background-color: initial;&quot;&gt;&amp;nbsp;&lt;/span&gt;&lt;span style=&quot;background-color: initial;&quot;&gt;, text:&lt;/span&gt;&lt;span style=&quot;background-color: initial;&quot;&gt;string&lt;/span&gt;&lt;span style=&quot;background-color: initial;&quot;&gt;):double&lt;/span&gt;&lt;/div&gt;" style="text;strokeColor=none;fillColor=none;align=left;verticalAlign=top;spacingLeft=4;spacingRight=4;overflow=hidden;rotatable=0;points=[[0,0.5],[1,0.5]];portConstraint=eastwest;whiteSpace=wrap;html=1;" vertex="1" parent="Tdp0xj_Su_nTBGMrEOoG-5">
          <mxGeometry y="60" width="320" height="170" as="geometry" />
        </mxCell>
        <mxCell id="Tdp0xj_Su_nTBGMrEOoG-9" value="User" style="swimlane;fontStyle=1;align=center;verticalAlign=top;childLayout=stackLayout;horizontal=1;startSize=26;horizontalStack=0;resizeParent=1;resizeParentMax=0;resizeLast=0;collapsible=1;marginBottom=0;whiteSpace=wrap;html=1;" vertex="1" parent="1">
          <mxGeometry x="40" y="680" width="270" height="190" as="geometry" />
        </mxCell>
        <mxCell id="Tdp0xj_Su_nTBGMrEOoG-10" value="&lt;div&gt;-login:&lt;span style=&quot;background-color: initial;&quot;&gt;string&lt;/span&gt;&lt;span style=&quot;background-color: initial;&quot;&gt;&amp;nbsp;&lt;/span&gt;&lt;/div&gt;&lt;div&gt;-password:&lt;span style=&quot;background-color: initial;&quot;&gt;string&lt;/span&gt;&lt;span style=&quot;background-color: initial;&quot;&gt;&amp;nbsp;&lt;/span&gt;&lt;/div&gt;&lt;div&gt;-isAdmin:&lt;span style=&quot;background-color: initial;&quot;&gt;bool&lt;/span&gt;&lt;span style=&quot;background-color: initial;&quot;&gt;&amp;nbsp;&lt;/span&gt;&lt;/div&gt;" style="text;strokeColor=none;fillColor=none;align=left;verticalAlign=top;spacingLeft=4;spacingRight=4;overflow=hidden;rotatable=0;points=[[0,0.5],[1,0.5]];portConstraint=eastwest;whiteSpace=wrap;html=1;" vertex="1" parent="Tdp0xj_Su_nTBGMrEOoG-9">
          <mxGeometry y="26" width="270" height="54" as="geometry" />
        </mxCell>
        <mxCell id="Tdp0xj_Su_nTBGMrEOoG-11" value="" style="line;strokeWidth=1;fillColor=none;align=left;verticalAlign=middle;spacingTop=-1;spacingLeft=3;spacingRight=3;rotatable=0;labelPosition=right;points=[];portConstraint=eastwest;strokeColor=inherit;" vertex="1" parent="Tdp0xj_Su_nTBGMrEOoG-9">
          <mxGeometry y="80" width="270" height="8" as="geometry" />
        </mxCell>
        <mxCell id="Tdp0xj_Su_nTBGMrEOoG-12" value="&lt;div&gt;+checkLogin(string login):&lt;span style=&quot;background-color: initial;&quot;&gt;const bool&lt;/span&gt;&lt;span style=&quot;background-color: initial;&quot;&gt;&amp;nbsp;&lt;/span&gt;&lt;/div&gt;&lt;div&gt;+checkPassword(string password):&lt;span style=&quot;background-color: initial;&quot;&gt;const bool&lt;/span&gt;&lt;span style=&quot;background-color: initial;&quot;&gt;&amp;nbsp;&lt;/span&gt;&lt;/div&gt;&lt;div&gt;+checkAdmin():&lt;span style=&quot;background-color: initial;&quot;&gt;const bool&lt;/span&gt;&lt;span style=&quot;background-color: initial;&quot;&gt;&amp;nbsp;&lt;/span&gt;&lt;/div&gt;&lt;div&gt;+encodePassword():&lt;span style=&quot;background-color: initial;&quot;&gt;string&lt;/span&gt;&lt;span style=&quot;background-color: initial;&quot;&gt;&amp;nbsp;&lt;/span&gt;&lt;/div&gt;&lt;div&gt;+addToFile():&lt;span style=&quot;background-color: initial;&quot;&gt;void&lt;/span&gt;&lt;span style=&quot;background-color: initial;&quot;&gt;&amp;nbsp;&lt;/span&gt;&lt;/div&gt;&lt;div&gt;+showInfo():&lt;span style=&quot;background-color: initial;&quot;&gt;void&lt;/span&gt;&lt;span style=&quot;background-color: initial;&quot;&gt;&amp;nbsp;&lt;/span&gt;&lt;/div&gt;" style="text;strokeColor=none;fillColor=none;align=left;verticalAlign=top;spacingLeft=4;spacingRight=4;overflow=hidden;rotatable=0;points=[[0,0.5],[1,0.5]];portConstraint=eastwest;whiteSpace=wrap;html=1;" vertex="1" parent="Tdp0xj_Su_nTBGMrEOoG-9">
          <mxGeometry y="88" width="270" height="102" as="geometry" />
        </mxCell>
        <mxCell id="Tdp0xj_Su_nTBGMrEOoG-13" value="TvShow" style="swimlane;fontStyle=1;align=center;verticalAlign=top;childLayout=stackLayout;horizontal=1;startSize=26;horizontalStack=0;resizeParent=1;resizeParentMax=0;resizeLast=0;collapsible=1;marginBottom=0;whiteSpace=wrap;html=1;" vertex="1" parent="1">
          <mxGeometry x="360" y="680" width="220" height="190" as="geometry" />
        </mxCell>
        <mxCell id="Tdp0xj_Su_nTBGMrEOoG-14" value="&lt;div&gt;+name:string&lt;/div&gt;&lt;div&gt;+rate:&lt;span style=&quot;background-color: initial;&quot;&gt;int&lt;/span&gt;&lt;span style=&quot;background-color: initial;&quot;&gt;&amp;nbsp;&lt;/span&gt;&lt;/div&gt;&lt;div&gt;+spectators:&lt;span style=&quot;background-color: initial;&quot;&gt;int&lt;/span&gt;&lt;span style=&quot;background-color: initial;&quot;&gt;&amp;nbsp;&lt;/span&gt;&lt;/div&gt;&lt;div&gt;+averageWatchTime:&lt;span style=&quot;background-color: initial;&quot;&gt;double&lt;/span&gt;&lt;span style=&quot;background-color: initial;&quot;&gt;&amp;nbsp;&lt;/span&gt;&lt;/div&gt;&lt;div&gt;+maxSpectators:&lt;span style=&quot;background-color: initial;&quot;&gt;static int&lt;/span&gt;&lt;span style=&quot;background-color: initial;&quot;&gt;&amp;nbsp;&lt;/span&gt;&lt;/div&gt;&lt;div&gt;+maxAverageWatchTime:&lt;span style=&quot;background-color: initial;&quot;&gt;static double&lt;/span&gt;&lt;span style=&quot;background-color: initial;&quot;&gt;&amp;nbsp;&lt;/span&gt;&lt;/div&gt;" style="text;strokeColor=none;fillColor=none;align=left;verticalAlign=top;spacingLeft=4;spacingRight=4;overflow=hidden;rotatable=0;points=[[0,0.5],[1,0.5]];portConstraint=eastwest;whiteSpace=wrap;html=1;" vertex="1" parent="Tdp0xj_Su_nTBGMrEOoG-13">
          <mxGeometry y="26" width="220" height="94" as="geometry" />
        </mxCell>
        <mxCell id="Tdp0xj_Su_nTBGMrEOoG-15" value="" style="line;strokeWidth=1;fillColor=none;align=left;verticalAlign=middle;spacingTop=-1;spacingLeft=3;spacingRight=3;rotatable=0;labelPosition=right;points=[];portConstraint=eastwest;strokeColor=inherit;" vertex="1" parent="Tdp0xj_Su_nTBGMrEOoG-13">
          <mxGeometry y="120" width="220" height="8" as="geometry" />
        </mxCell>
        <mxCell id="Tdp0xj_Su_nTBGMrEOoG-16" value="&lt;div&gt;+balanceRate():&lt;span style=&quot;background-color: initial;&quot;&gt;void&lt;/span&gt;&lt;span style=&quot;background-color: initial;&quot;&gt;&amp;nbsp;&lt;/span&gt;&lt;span style=&quot;background-color: initial;&quot;&gt;&amp;nbsp;&lt;/span&gt;&lt;/div&gt;&lt;div&gt;+balanceMaxes():&lt;span style=&quot;background-color: initial;&quot;&gt;void&lt;/span&gt;&lt;span style=&quot;background-color: initial;&quot;&gt;&amp;nbsp;&lt;/span&gt;&lt;/div&gt;&lt;div&gt;+addToFile():&lt;span style=&quot;background-color: initial;&quot;&gt;void&lt;/span&gt;&lt;span style=&quot;background-color: initial;&quot;&gt;&amp;nbsp;&lt;/span&gt;&lt;/div&gt;" style="text;strokeColor=none;fillColor=none;align=left;verticalAlign=top;spacingLeft=4;spacingRight=4;overflow=hidden;rotatable=0;points=[[0,0.5],[1,0.5]];portConstraint=eastwest;whiteSpace=wrap;html=1;" vertex="1" parent="Tdp0xj_Su_nTBGMrEOoG-13">
          <mxGeometry y="128" width="220" height="62" as="geometry" />
        </mxCell>
        <mxCell id="Tdp0xj_Su_nTBGMrEOoG-19" value="" style="endArrow=diamondThin;endFill=1;endSize=24;html=1;rounded=0;exitX=0.596;exitY=-0.016;exitDx=0;exitDy=0;exitPerimeter=0;" edge="1" parent="1">
          <mxGeometry width="160" relative="1" as="geometry">
            <mxPoint x="201" y="677" as="sourcePoint" />
            <mxPoint x="201" y="600" as="targetPoint" />
          </mxGeometry>
        </mxCell>
        <mxCell id="Tdp0xj_Su_nTBGMrEOoG-20" value="" style="endArrow=diamondThin;endFill=1;endSize=24;html=1;rounded=0;exitX=0.5;exitY=0;exitDx=0;exitDy=0;entryX=0.503;entryY=1;entryDx=0;entryDy=0;entryPerimeter=0;" edge="1" parent="1" source="Tdp0xj_Su_nTBGMrEOoG-13" target="Tdp0xj_Su_nTBGMrEOoG-4">
          <mxGeometry width="160" relative="1" as="geometry">
            <mxPoint x="199.5" y="677" as="sourcePoint" />
            <mxPoint x="199.5" y="600" as="targetPoint" />
            <Array as="points">
              <mxPoint x="470" y="640" />
              <mxPoint x="201" y="640" />
            </Array>
          </mxGeometry>
        </mxCell>
        <mxCell id="Tdp0xj_Su_nTBGMrEOoG-21" value="1" style="text;html=1;align=center;verticalAlign=middle;resizable=0;points=[];autosize=1;strokeColor=none;fillColor=none;" vertex="1" parent="1">
          <mxGeometry x="200" y="600" width="30" height="30" as="geometry" />
        </mxCell>
        <mxCell id="Tdp0xj_Su_nTBGMrEOoG-22" value="0..*" style="text;html=1;align=center;verticalAlign=middle;resizable=0;points=[];autosize=1;strokeColor=none;fillColor=none;" vertex="1" parent="1">
          <mxGeometry x="170" y="658" width="40" height="30" as="geometry" />
        </mxCell>
        <mxCell id="Tdp0xj_Su_nTBGMrEOoG-23" value="0..*" style="text;html=1;align=center;verticalAlign=middle;resizable=0;points=[];autosize=1;strokeColor=none;fillColor=none;" vertex="1" parent="1">
          <mxGeometry x="440" y="658" width="40" height="30" as="geometry" />
        </mxCell>
        <mxCell id="Tdp0xj_Su_nTBGMrEOoG-25" value="" style="line;strokeWidth=1;fillColor=none;align=left;verticalAlign=middle;spacingTop=-1;spacingLeft=3;spacingRight=3;rotatable=0;labelPosition=right;points=[];portConstraint=eastwest;strokeColor=inherit;" vertex="1" parent="1">
          <mxGeometry x="360" y="380" width="80" height="8" as="geometry" />
        </mxCell>
        <mxCell id="Tdp0xj_Su_nTBGMrEOoG-26" value="1" style="text;html=1;align=center;verticalAlign=middle;resizable=0;points=[];autosize=1;strokeColor=none;fillColor=none;" vertex="1" parent="1">
          <mxGeometry x="355" y="378" width="30" height="30" as="geometry" />
        </mxCell>
        <mxCell id="Tdp0xj_Su_nTBGMrEOoG-27" value="1" style="text;html=1;align=center;verticalAlign=middle;resizable=0;points=[];autosize=1;strokeColor=none;fillColor=none;" vertex="1" parent="1">
          <mxGeometry x="415" y="358" width="30" height="30" as="geometry" />
        </mxCell>
      </root>
    </mxGraphModel>
  </diagram>
</mxfile>
